<?xml version="1.0" standalone="no"?>
<!DOCTYPE svg PUBLIC "-//W3C//DTD SVG 20010904//EN"
 "http://www.w3.org/TR/2001/REC-SVG-20010904/DTD/svg10.dtd">
<svg version="1.0" xmlns="http://www.w3.org/2000/svg"
 width="200.000000pt" height="200.000000pt" viewBox="0 0 200.000000 200.000000"
 preserveAspectRatio="xMidYMid meet">
<metadata>
Created by potrace 1.16, written by Peter Selinger 2001-2019
</metadata>
<g transform="translate(0.000000,200.000000) scale(0.100000,-0.100000)"
fill="#000000" stroke="none">
<path d="M70 1000 l0 -1000 920 0 920 0 0 1000 0 1000 -920 0 -920 0 0 -1000z
m1740 0 l0 -900 -820 0 -820 0 0 900 0 900 820 0 820 0 0 -900z"/>
<path d="M565 1476 c-356 -349 -363 -360 -218 -315 106 33 278 33 367 1 69
-26 168 -80 211 -117 34 -28 40 -21 -64 -85 -165 -102 -346 -121 -527 -56 -61
22 -84 20 -84 -8 0 -5 103 -113 229 -240 126 -127 264 -269 308 -315 61 -65
84 -83 97 -78 20 8 21 5 -14 136 -47 180 -1 379 125 535 l23 29 45 -69 c113
-176 139 -367 74 -546 -20 -56 -22 -68 -10 -84 12 -17 29 -3 216 182 111 110
256 253 322 317 109 105 119 118 104 132 -14 14 -21 13 -75 -7 -49 -18 -81
-22 -194 -22 -116 -1 -143 2 -194 21 -55 21 -166 83 -210 118 -20 15 -20 15 0
30 47 38 155 96 214 116 53 19 87 23 180 23 100 0 126 -4 194 -28 67 -23 81
-25 93 -13 11 11 -37 65 -303 336 -273 277 -319 320 -331 308 -12 -12 -11 -23
8 -78 15 -43 24 -97 27 -163 5 -110 -7 -179 -45 -266 -25 -58 -103 -180 -115
-180 -25 0 -120 179 -143 270 -25 94 -16 241 18 335 19 50 23 73 15 82 -6 7
-13 13 -17 13 -3 0 -150 -142 -326 -314z"/>
</g>
</svg>
